<svg xmlns="http://www.w3.org/2000/svg" width="61.04" height="18.32" viewBox="0 0 61.04 18.32">
  <title>Asset 2</title>
  <g id="Layer_2" data-name="Layer 2">
    <g id="Layer_1-2" data-name="Layer 1">
      <g>
        <path d="M0,3.53H.72v1h0A1.86,1.86,0,0,1,1.16,4a2.52,2.52,0,0,1,.55-.35,2.74,2.74,0,0,1,.62-.2A3.19,3.19,0,0,1,3,3.38a3.09,3.09,0,0,1,1.17.22A2.71,2.71,0,0,1,5.66,5.13,3.09,3.09,0,0,1,5.88,6.3a3.09,3.09,0,0,1-.22,1.17A2.72,2.72,0,0,1,4.13,9,3.1,3.1,0,0,1,3,9.22a3.19,3.19,0,0,1-.64-.07,2.74,2.74,0,0,1-.62-.2,2.52,2.52,0,0,1-.55-.35,1.86,1.86,0,0,1-.42-.5h0v3.71H0ZM.65,6.3a2.19,2.19,0,0,0,.18.88,2.26,2.26,0,0,0,.49.72,2.36,2.36,0,0,0,.73.49A2.29,2.29,0,0,0,3,8.57a2.24,2.24,0,0,0,.91-.18,2.12,2.12,0,0,0,.7-.49A2.06,2.06,0,0,0,5,7.18,2.67,2.67,0,0,0,5,5.42a2.06,2.06,0,0,0-.44-.72,2.11,2.11,0,0,0-.7-.49A2.24,2.24,0,0,0,3,4a2.29,2.29,0,0,0-.91.18,2.35,2.35,0,0,0-.73.49,2.26,2.26,0,0,0-.49.72A2.19,2.19,0,0,0,.65,6.3Z"/>
        <path d="M7.61,0h.72V9.07H7.61Z"/>
        <path d="M14.68,6.74q0,.41,0,.73t0,.6c0,.18,0,.36,0,.52s0,.32.05.48h-.67a5.16,5.16,0,0,1-.07-.9h0a2,2,0,0,1-.77.79,2.43,2.43,0,0,1-1.17.25,2.83,2.83,0,0,1-.71-.09,1.86,1.86,0,0,1-.62-.29,1.48,1.48,0,0,1-.62-1.27,1.48,1.48,0,0,1,.32-1,2,2,0,0,1,.8-.56,3.79,3.79,0,0,1,1-.24q.53-.05.94-.05H14V5.38a1.17,1.17,0,0,0-.44-1A1.89,1.89,0,0,0,12.47,4a2.53,2.53,0,0,0-1.69.62l-.42-.49a2.57,2.57,0,0,1,1-.58,3.53,3.53,0,0,1,1.13-.2,2.52,2.52,0,0,1,1.61.47,1.83,1.83,0,0,1,.6,1.53Zm-1.44-.46a6.32,6.32,0,0,0-.88.06,3.07,3.07,0,0,0-.77.2,1.44,1.44,0,0,0-.55.38.9.9,0,0,0-.2.6.88.88,0,0,0,.11.45,1,1,0,0,0,.29.32,1.38,1.38,0,0,0,.4.19,1.57,1.57,0,0,0,.45.07A2.32,2.32,0,0,0,13,8.4,1.62,1.62,0,0,0,13.64,8a1.53,1.53,0,0,0,.31-.61A2.9,2.9,0,0,0,14,6.66V6.29Z"/>
        <path d="M18.16,10.79a2.07,2.07,0,0,1-.56.85,1.41,1.41,0,0,1-1,.31,2.18,2.18,0,0,1-.36,0l-.35-.08.07-.67.32.09a1.31,1.31,0,0,0,.33,0,.69.69,0,0,0,.34-.08.9.9,0,0,0,.26-.22,1.48,1.48,0,0,0,.19-.29,3.52,3.52,0,0,0,.14-.33l.5-1.28L15.82,3.53h.8L18.46,8.2l1.79-4.67H21Z"/>
        <path d="M27.94,3.31V8.56A4.83,4.83,0,0,1,27.74,10,2.73,2.73,0,0,1,27.15,11a2.68,2.68,0,0,1-1,.68,4,4,0,0,1-1.45.24,5.56,5.56,0,0,1-1.52-.2A3.4,3.4,0,0,1,21.83,11l.86-1.18a3.52,3.52,0,0,0,.9.61,2.55,2.55,0,0,0,1.08.22,2.31,2.31,0,0,0,.87-.14,1.41,1.41,0,0,0,.56-.4,1.52,1.52,0,0,0,.3-.61,3.19,3.19,0,0,0,.09-.79V8.3h0a1.89,1.89,0,0,1-.83.63,2.78,2.78,0,0,1-1.06.21,2.86,2.86,0,0,1-1.18-.23,2.8,2.8,0,0,1-.91-.63,2.75,2.75,0,0,1-.58-.94,3.23,3.23,0,0,1-.2-1.15A3.58,3.58,0,0,1,21.91,5a2.73,2.73,0,0,1,.56-1,2.67,2.67,0,0,1,.89-.64,2.88,2.88,0,0,1,1.19-.23,2.73,2.73,0,0,1,1.14.24,1.85,1.85,0,0,1,.84.77h0V3.31ZM24.86,4.46a1.84,1.84,0,0,0-.7.13,1.53,1.53,0,0,0-.88.89,1.88,1.88,0,0,0-.13.7,1.65,1.65,0,0,0,.13.65,1.63,1.63,0,0,0,.35.53,1.68,1.68,0,0,0,.54.36,1.71,1.71,0,0,0,.67.13,1.85,1.85,0,0,0,.71-.13,1.64,1.64,0,0,0,.54-.35,1.51,1.51,0,0,0,.34-.53,1.85,1.85,0,0,0,.12-.67,1.68,1.68,0,0,0-.46-1.22A1.66,1.66,0,0,0,24.86,4.46Z"/>
        <path d="M29.57,3.31H31v.91h0a1.81,1.81,0,0,1,.68-.78,1.89,1.89,0,0,1,1-.28l.26,0,.26.06V4.64l-.35-.08-.34,0a1.55,1.55,0,0,0-.81.19,1.47,1.47,0,0,0-.47.43,1.42,1.42,0,0,0-.22.48A1.8,1.8,0,0,0,31,6V9.07H29.57Z"/>
        <path d="M33.73,6.19A3,3,0,0,1,34,4.95a2.9,2.9,0,0,1,.67-1,2.94,2.94,0,0,1,1-.61,3.58,3.58,0,0,1,2.45,0,2.94,2.94,0,0,1,1,.61,2.9,2.9,0,0,1,.67,1A3,3,0,0,1,40,6.19a3,3,0,0,1-.25,1.24A2.86,2.86,0,0,1,38.09,9a3.58,3.58,0,0,1-2.45,0A2.86,2.86,0,0,1,34,7.43,3,3,0,0,1,33.73,6.19Zm1.44,0a1.87,1.87,0,0,0,.11.65,1.62,1.62,0,0,0,.34.55,1.7,1.7,0,0,0,2.48,0,1.62,1.62,0,0,0,.34-.55,1.89,1.89,0,0,0,0-1.3A1.62,1.62,0,0,0,38.11,5a1.7,1.7,0,0,0-2.48,0,1.62,1.62,0,0,0-.34.55A1.87,1.87,0,0,0,35.17,6.19Z"/>
        <path d="M46.6,9.07H45.23V8.15h0a2,2,0,0,1-.62.75,1.85,1.85,0,0,1-1.14.32,2.32,2.32,0,0,1-1-.19,1.76,1.76,0,0,1-.65-.5,2,2,0,0,1-.36-.73,3.33,3.33,0,0,1-.11-.85V3.31h1.44V6.23q0,.24,0,.53a1.93,1.93,0,0,0,.13.55,1.06,1.06,0,0,0,.31.43.91.91,0,0,0,.59.17,1.37,1.37,0,0,0,.61-.12,1.17,1.17,0,0,0,.41-.32A1.28,1.28,0,0,0,45.08,7a2.09,2.09,0,0,0,.07-.55V3.31H46.6Z"/>
        <path d="M48.23,3.31H49.6v.92h0a2,2,0,0,1,.62-.75,1.85,1.85,0,0,1,1.14-.32,2.26,2.26,0,0,1,1,.19,1.85,1.85,0,0,1,.65.5,1.91,1.91,0,0,1,.36.72,3.3,3.3,0,0,1,.11.85V9.07H52V6.16c0-.16,0-.34,0-.53a1.92,1.92,0,0,0-.13-.55,1,1,0,0,0-.32-.43A.91.91,0,0,0,51,4.46a1.37,1.37,0,0,0-.61.12,1.17,1.17,0,0,0-.41.32,1.29,1.29,0,0,0-.23.47,2.07,2.07,0,0,0-.07.55V9.07H48.23Z"/>
        <path d="M59.67,8.21h0a1.85,1.85,0,0,1-.84.77,2.72,2.72,0,0,1-1.14.24A2.89,2.89,0,0,1,56.48,9a2.67,2.67,0,0,1-.89-.64,2.73,2.73,0,0,1-.56-1,3.58,3.58,0,0,1-.19-1.19A3.4,3.4,0,0,1,55,5a3,3,0,0,1,.57-1,2.63,2.63,0,0,1,.88-.64,2.69,2.69,0,0,1,1.13-.23,2.78,2.78,0,0,1,.72.08,2.48,2.48,0,0,1,.55.22,2.21,2.21,0,0,1,.41.28,2.07,2.07,0,0,1,.28.29h0V0H61V9.07H59.67Zm-3.41-2a1.87,1.87,0,0,0,.11.65,1.62,1.62,0,0,0,.34.55,1.7,1.7,0,0,0,2.48,0,1.62,1.62,0,0,0,.34-.55,1.89,1.89,0,0,0,0-1.3A1.62,1.62,0,0,0,59.2,5a1.7,1.7,0,0,0-2.48,0,1.62,1.62,0,0,0-.34.55A1.87,1.87,0,0,0,56.27,6.19Z"/>
      </g>
      <g>
        <path d="M13.29,15.67v2.14l-.2.2-.2-.2V15.67l.2-.2Zm2.18-.43.21.21-.21.21H13.35l-.21-.21.21-.21Zm0,2.61.21.21-.21.21H13.35l-.21-.21.21-.21Z"/>
        <path d="M17,15.67v2.14l-.2.2-.2-.2V15.67l.2-.2Zm2.18-.46.21.21-.21.21H17l-.21-.21.21-.21Zm0,2.64.21.21-.21.21H17l-.21-.21.21-.21Zm.45-2.18v2.14l-.2.2-.2-.2V15.67l.2-.2Z"/>
        <path d="M20.89,15.67v2.14l-.2.2-.2-.2V15.67l.2-.2Zm2.18-.44.21.21-.21.21H20.94l-.21-.21.21-.21Zm0,2.61.21.21-.21.21H20.94l-.21-.21.21-.21ZM23.52,13v2.14l-.2.2-.2-.2V13l.2-.2Zm0,2.64v2.14l-.2.2-.2-.2V15.67l.2-.2Z"/>
        <path d="M24.81,15.67v2.14l-.2.2-.2-.2V15.67l.2-.2ZM27,15.21l.21.21-.21.21H24.86l-.21-.21.21-.21Zm0,2.64.21.21-.21.21H24.86l-.21-.21.21-.21Zm-1.67-1.37.21.21-.21.21H25l-.21-.21.21-.21Zm1.71,0,.21.21-.21.21H25.79l-.21-.21.21-.21Zm.46-.85v.65l-.2.2-.2-.2v-.65l.2-.2Z"/>
        <path d="M31.41,15.67v2.14l-.2.2-.2-.2V15.67l.2-.2Zm2.18-.46.21.21-.21.21H31.47l-.21-.21.21-.21Zm0,2.64.21.21-.21.21H31.47l-.21-.21.21-.21Zm-1.67-1.37.21.21-.21.21h-.28l-.21-.21.21-.21Zm1.71,0,.21.21-.21.21H32.39l-.21-.21.21-.21Zm.46-.85v.65l-.2.2-.2-.2v-.65l.2-.2Z"/>
        <path d="M35.28,15.61l1,1v.34H36l-1-1v-.32Zm1,1.42v.32l-1,1H35V18L36,17Zm1.41-1.42v.32l-1,1h-.3v-.35l1-.94Zm-1,1.41,1,1v.34h-.3l-1-1V17Z"/>
        <path d="M38.95,15.67v2.14l-.2.2-.2-.2V15.67l.2-.2Zm2.18-.46.21.21-.21.21H39l-.21-.21.21-.21Zm0,2.64.21.21-.21.21H39l-.21-.21.21-.21Zm-1.67-1.37.21.21-.21.21h-.28L39,16.69l.21-.21Zm1.71,0,.21.21-.21.21H39.93l-.21-.21.21-.21Zm.46-.85v.65l-.2.2-.2-.2v-.65l.2-.2Z"/>
        <path d="M42.92,15.67v2.14l-.2.2-.2-.2V15.67l.2-.2Zm2.18-.43.21.21-.21.21H43l-.21-.21.21-.21Zm0,2.61.21.21-.21.21H43l-.21-.21.21-.21Z"/>
        <path d="M46.6,15.67v2.14l-.2.2-.2-.2V15.67l.2-.2ZM48,17.85l.21.21-.21.21H46.74l-.21-.21.21-.21Zm.5-2.18v2.14l-.2.2-.2-.2V15.67l.2-.2Z"/>
        <path d="M50.17,15.21l.21.21-.21.21h-.59l-.21-.21.21-.21ZM50.62,13v2.14l-.2.2-.2-.2V13l.2-.2Zm0,2.64v2.14l-.2.2-.2-.2V15.67l.2-.2Zm.69-.46.21.21-.21.21h-.59l-.21-.21.21-.21Z"/>
        <path d="M52.81,15.63v2.14l-.2.2-.2-.2V15.63l.2-.2Zm0-.75v.3l-.2.2-.2-.2v-.3l.2-.2Z"/>
        <path d="M54.09,15.67v2.14l-.2.2-.2-.2V15.67l.2-.2Zm2.18-.46.21.21-.21.21H54.15l-.21-.21.21-.21Zm0,2.64.21.21-.21.21H54.15l-.21-.21.21-.21Zm.45-2.18v2.14l-.2.2-.2-.2V15.67l.2-.2Z"/>
        <path d="M58,15.67v2.14l-.2.2-.2-.2V15.67l.2-.2Zm2.18-.5.21.21-.21.21H58.07l-.21-.21.21-.21Zm.45.5v2.14l-.2.2-.2-.2V15.67l.2-.2Z"/>
      </g>
    </g>
  </g>
</svg>
