<svg xmlns="http://www.w3.org/2000/svg" width="112.62" height="111.62" viewBox="0 0 112.62 111.62">
  <defs>
    <style>
      .cls-1 {
        fill: none;
        stroke: #ccc;
        stroke-miterlimit: 10;
        stroke-width: 7px;
      }

      .cls-2 {
        fill: #b80101;
      }

      .cls-3 {
        fill: #f5f501;
      }

      .cls-4 {
        fill: #517e33;
      }

      .cls-5 {
        fill: #214e77;
      }

      .cls-6 {
        fill: #4d4d4d;
      }
    </style>
  </defs>
  <title>Asset 1</title>
  <g id="Layer_2" data-name="Layer 2">
    <g id="Layer_1-2" data-name="Layer 1">
      <circle class="cls-1" cx="55.89" cy="56.12" r="42.5"/>
      <polygon class="cls-2" points="67.84 14.31 43.05 0 43.05 28.62 67.84 14.31"/>
      <polygon class="cls-3" points="98.31 66.84 112.62 42.05 84 42.05 98.31 66.84"/>
      <polygon class="cls-4" points="44.79 97.31 69.57 111.62 69.57 83 44.79 97.31"/>
      <polygon class="cls-5" points="14.31 44.79 0 69.57 28.62 69.57 14.31 44.79"/>
      <g id="aL4tXj.tif">
        <g>
          <path class="cls-6" d="M58,79.33H56.33c-.93-.14-1.86-.24-2.78-.43A11.11,11.11,0,0,1,49,77a4.62,4.62,0,0,1-2-3.93c0-3.07,0-6.15,0-9.22a6,6,0,0,1,.08-1.13,5.16,5.16,0,0,1,5.18-4.28H62a7.19,7.19,0,0,0,1.26-.08A6.52,6.52,0,0,0,68.65,52c0-1.33,0-2.67,0-4,0-.15,0-.3,0-.46H73a3.08,3.08,0,0,1,.66.11,4.72,4.72,0,0,1,3.25,3A17,17,0,0,1,78,55c.16,1,.23,2,.34,3v.51a4.3,4.3,0,0,0-.06.45,16.64,16.64,0,0,1-1.68,6.38,4.55,4.55,0,0,1-4.57,2.85c-4.77-.05-9.54,0-14.31,0l-.52,0V69.5H67.37c0,1.4,0,2.76,0,4.12a3.21,3.21,0,0,1-.06.54A4.71,4.71,0,0,1,65,77.39a12.13,12.13,0,0,1-4.12,1.51C59.9,79.09,59,79.19,58,79.33ZM61,74a1.9,1.9,0,1,0,3.81,0A1.9,1.9,0,1,0,61,74Z"/>
          <path class="cls-6" d="M34.13,57V54.77c0-.11.05-.21.07-.32.18-1.08.33-2.16.53-3.23a7.21,7.21,0,0,1,1.79-3.74,6.33,6.33,0,0,1,4.8-2H55.18V44.23H45.47c-.22,0-.45,0-.44-.32,0-1.54,0-3.09.06-4.63a3.63,3.63,0,0,1,1.64-3.07,8.06,8.06,0,0,1,2.86-1.06A28.78,28.78,0,0,1,58,34.76a17,17,0,0,1,3.39.58,5.34,5.34,0,0,1,4,5.5c0,3,0,6,0,9A5.22,5.22,0,0,1,60,55.22c-3.3-.07-6.59,0-9.89,0a6.41,6.41,0,0,0-6.36,5.92c-.1,1.51,0,3,0,4.54,0,.16,0,.33,0,.53-1.15,0-2.25,0-3.34,0a6.77,6.77,0,0,1-1.17-.1,4.83,4.83,0,0,1-3.66-3,21.53,21.53,0,0,1-1-3.41C34.35,58.77,34.27,57.86,34.13,57ZM47.58,39.7a1.9,1.9,0,1,0,1.89-1.94A1.91,1.91,0,0,0,47.58,39.7Z"/>
        </g>
      </g>
    </g>
  </g>
</svg>
